# xmcd
#
# Track frame offsets:
#	150
#	19732
#	37937
#	57495
#
# Disc length: 1007 seconds
#
# Revision: 0
# Processed by: cddbd v1.5.2PL0 Copyright (c) Steve Scherf et al.
# Submitted via: dBpowerAMP V4.0
#
DISCID=2a03ed04
DTITLE=Tohoshinki - Trick01-Two Hearts
DYEAR=2008
DGENRE=JPop
TTITLE0=Two Hearts
TTITLE1=Wild Soul
TTITLE2=Two Hearts(less vocal)
TTITLE3=Wild Soul(less vocal)
EXTD=
EXTT0=
EXTT1=
EXTT2=
EXTT3=
PLAYORDER=
